# xmcd
#
# Track frame offsets:
#	150
#	13830
#	27325
#	38480
#	50786
#	62274
#	75277
#	87666
#	99430
#	111627
#	125256
#	136156
#	148772
#	159901
#	172202
#	184284
#	197912
#	209867
#	222569
#	233277
#	245050
#	255607
#	268320
#	279206
#	289060
#
# Disc length: 4022 seconds
# Revision: 1
# Processed by: cddbd v1.5.2PL0 Copyright (c) Steve Scherf et al.
# Submitted via: dBpowerAMP V12.0
#
DISCID=7b0fb419
DTITLE=Various Artist - Blues Brothers and Soul Sisters
DYEAR=2013
DGENRE=Soul
TTITLE0=Etta James - Seven Day Fool
TTITLE1=Ben E. King - Stand By Me
TTITLE2=Timi Yuro - Hurt
TTITLE3=Howlin' Wolf - Spoonful
TTITLE4=Ike and Tina Turner - Poor Fool
TTITLE5=Booker T. and The MGs - Green Onions
TTITLE6=Dionne Warwick - I Smiled Yesterday
TTITLE7=Sam Cooke - Chain Gang
TTITLE8=Shirelles, The - Will You Love Me Tomorrow
TTITLE9=Slim Harpo - I'm A King Bee
TTITLE10=Dee Dee Sharp - Baby Cakes
TTITLE11=Jerry Butler and The Impressions - He Will Break Your Heart
TTITLE12=Mary Wells - The One Who Really Loves You
TTITLE13=Jackie Wilson - Lonely Teardrops
TTITLE14=Ketty Lester - Love Letters
TTITLE15=Albert King - Travelin' To California
TTITLE16=Wynona Carr - Should I Eever Love Again
TTITLE17=B. B. King - Every Day I Have The Blues
TTITLE18=Patti LaBelle and The Bluebelles - Tear After Tear
TTITLE19=Freddie King - Hide Away
TTITLE20=Carla Thomas - Gee Whiz
TTITLE21=King Curtis - Soul Twist
TTITLE22=Dee Clark - Nobody But You
TTITLE23=James Brown - Messing With The Blues
TTITLE24=Aretha Franklin - It's So Heartbreakin'
EXTD=
EXTT0=
EXTT1=
EXTT2=
EXTT3=
EXTT4=
EXTT5=
EXTT6=
EXTT7=
EXTT8=
EXTT9=
EXTT10=
EXTT11=
EXTT12=
EXTT13=
EXTT14=
EXTT15=
EXTT16=
EXTT17=
EXTT18=
EXTT19=
EXTT20=
EXTT21=
EXTT22=
EXTT23=
EXTT24=
PLAYORDER=
